<svg width="28" height="30" viewBox="0 0 28 30" fill="none" xmlns="http://www.w3.org/2000/svg">
<path d="M15.75 22.4999C15.75 23.5354 14.9665 24.3749 14 24.3749C13.0335 24.3749 12.25 23.5354 12.25 22.4999C12.25 21.4643 13.0335 20.6249 14 20.6249C14.9665 20.6249 15.75 21.4643 15.75 22.4999Z" fill="black"/>
<path d="M14 16.8749C14.9665 16.8749 15.75 16.0354 15.75 14.9999C15.75 13.9643 14.9665 13.1249 14 13.1249C13.0335 13.1249 12.25 13.9643 12.25 14.9999C12.25 16.0354 13.0335 16.8749 14 16.8749Z" fill="black"/>
<path d="M14 9.37488C14.9665 9.37488 15.75 8.53541 15.75 7.49988C15.75 6.46435 14.9665 5.62488 14 5.62488C13.0335 5.62488 12.25 6.46435 12.25 7.49988C12.25 8.53541 13.0335 9.37488 14 9.37488Z" fill="black"/>
</svg>
