<svg width="63" height="63" viewBox="0 0 63 63" fill="none" xmlns="http://www.w3.org/2000/svg">
<path fill-rule="evenodd" clip-rule="evenodd" d="M22.8375 17.0625V32.8125C22.8375 33.9501 23.0616 35.0765 23.4969 36.1275C23.9322 37.1785 24.5703 38.1334 25.3747 38.9378C26.1791 39.7422 27.134 40.3803 28.185 40.8156C29.236 41.2509 30.3624 41.475 31.5 41.475C32.6376 41.475 33.764 41.2509 34.815 40.8156C35.866 40.3803 36.8209 39.7422 37.6253 38.9378C38.4297 38.1334 39.0678 37.1785 39.5031 36.1275C39.9384 35.0765 40.1625 33.9501 40.1625 32.8125V17.0625C40.1625 14.7651 39.2498 12.5617 37.6253 10.9372C36.0008 9.31265 33.7974 8.4 31.5 8.4C29.2026 8.4 26.9992 9.31265 25.3747 10.9372C23.7502 12.5617 22.8375 14.7651 22.8375 17.0625ZM33.075 52.437V60.375H29.925V52.437C24.992 52.0411 20.3891 49.8019 17.0327 46.1653C13.6762 42.5286 11.8125 37.7613 11.8125 32.8125V28.875H14.9625V32.8125C14.9625 37.1985 16.7048 41.4049 19.8062 44.5063C22.9076 47.6077 27.114 49.35 31.5 49.35C35.886 49.35 40.0924 47.6077 43.1938 44.5063C46.2952 41.4049 48.0375 37.1985 48.0375 32.8125V28.875H51.1875V32.8125C51.1875 37.7613 49.3238 42.5286 45.9673 46.1653C42.6109 49.8019 38.008 52.0411 33.075 52.437ZM19.6875 17.0625C19.6875 13.9296 20.932 10.9251 23.1473 8.7098C25.3626 6.49453 28.3671 5.25 31.5 5.25C34.6329 5.25 37.6374 6.49453 39.8527 8.7098C42.068 10.9251 43.3125 13.9296 43.3125 17.0625V32.8125C43.3125 35.9454 42.068 38.9499 39.8527 41.1652C37.6374 43.3805 34.6329 44.625 31.5 44.625C28.3671 44.625 25.3626 43.3805 23.1473 41.1652C20.932 38.9499 19.6875 35.9454 19.6875 32.8125V17.0625Z" fill="white"/>
</svg>
